<?xml version="1.0" encoding="UTF-8"?>
<svg id="Layer_1" xmlns="http://www.w3.org/2000/svg" version="1.1" viewBox="0 0 244.57 99.37">
  <defs>
    <style>
      .st0 {
        fill: #5b5596;
      }

      .st1 {
        fill: #3a2968;
      }

      .st2 {
        fill: #74c9b7;
      }
    </style>
  </defs>
  <path class="st0" d="M0,62.27V0h29.09c9.55,0,16.82,2.11,21.8,6.32,4.98,4.21,7.47,9.94,7.47,17.17,0,4.8-1.16,8.94-3.47,12.41s-5.59,6.13-9.83,7.96c-4.24,1.84-9.27,2.76-15.08,2.76H11.65l9.34-8.63v24.29H0ZM21,40.3l-9.34-9.52h16.99c2.91,0,5.06-.65,6.45-1.96,1.39-1.3,2.09-3.08,2.09-5.34s-.7-4.03-2.09-5.34c-1.39-1.3-3.54-1.96-6.45-1.96H11.66l9.34-9.52v33.63h0ZM37.28,62.27l-15.3-22.69h22.24l15.48,22.69h-22.42Z"/>
  <rect class="st2" x="65.66" y="13.6" width="20.1" height="48.67"/>
  <path class="st0" d="M110.72,62.27l-19.57-48.67h20.64l14.86,39.5h-10.41l15.84-39.5h19.04l-19.57,48.67h-20.83Z"/>
  <path class="st0" d="M177.49,63.16c-5.93,0-11.11-1.1-15.53-3.29-4.42-2.19-7.84-5.2-10.28-9.03-2.43-3.83-3.65-8.14-3.65-12.94s1.2-9.28,3.6-13.08c2.4-3.8,5.69-6.76,9.88-8.9,4.18-2.14,8.88-3.2,14.1-3.2,4.8,0,9.24.95,13.3,2.85s7.33,4.72,9.79,8.45c2.46,3.74,3.69,8.36,3.69,13.88,0,.71-.03,1.5-.09,2.36s-.12,1.65-.18,2.36h-37.46v-9.7h26.78l-7.56,2.58c0-1.9-.34-3.51-1.02-4.85-.68-1.33-1.62-2.37-2.8-3.11-1.19-.74-2.61-1.11-4.27-1.11s-3.1.37-4.31,1.11c-1.22.74-2.15,1.78-2.8,3.11-.65,1.33-.98,2.95-.98,4.85v3.02c0,2.08.41,3.86,1.25,5.34.83,1.48,2.02,2.6,3.56,3.34s3.41,1.11,5.61,1.11,4.11-.3,5.56-.89,2.98-1.48,4.58-2.67l10.5,10.59c-2.37,2.55-5.29,4.49-8.76,5.83-3.47,1.33-7.64,2-12.5,2h-.01Z"/>
  <path class="st0" d="M204.27,28.29v-14.68h36.74v14.68h-36.74ZM232.21,63.16c-6.7,0-11.92-1.62-15.66-4.85s-5.61-8.2-5.61-14.9V2.66h20.11v40.57c0,1.48.4,2.64,1.2,3.47s1.79,1.25,2.98,1.25c1.72,0,3.23-.45,4.54-1.33l4.8,13.97c-1.54.89-3.4,1.54-5.56,1.96-2.17.41-4.44.62-6.81.62h.01Z"/>
  <g id="qBICOe">
    <path class="st2" d="M93.17,10.87h-35.35c.58-2.11,1.53-4,2.78-5.64h30.2c1.41,1.75,2.36,3.7,2.37,5.64Z"/>
  </g>
  <g>
    <path class="st1" d="M5.15,92.45v-25.51h3.29v12.14l-.34,4.23.2,4.23v4.92h-3.17l.02-.02ZM14.81,92.65c-1.56,0-2.97-.34-4.22-1.05s-2.23-1.74-2.95-3.11c-.72-1.38-1.09-3.09-1.09-5.16s.38-3.78,1.12-5.16,1.74-2.41,2.99-3.09,2.62-1.03,4.14-1.03c1.79,0,3.37.4,4.74,1.18s2.46,1.86,3.26,3.26c.8,1.39,1.21,3,1.21,4.87s-.4,3.49-1.21,4.89-1.88,2.48-3.26,3.26c-1.38.78-2.95,1.18-4.74,1.18v-.02ZM14.52,89.78c1.18,0,2.23-.27,3.15-.8.92-.52,1.66-1.28,2.21-2.24.54-.98.81-2.1.81-3.38s-.27-2.44-.81-3.38c-.54-.96-1.27-1.68-2.21-2.23-.92-.52-1.97-.8-3.15-.8s-2.19.27-3.11.8-1.66,1.27-2.21,2.23c-.54.96-.81,2.08-.81,3.38s.27,2.41.81,3.38c.54.98,1.27,1.72,2.21,2.24.92.52,1.97.8,3.11.8Z"/>
    <path class="st1" d="M28.87,99.33c-.87,0-1.72-.14-2.55-.43-.83-.29-1.54-.71-2.14-1.25l1.41-2.48c.45.43.96.76,1.52,1,.54.24,1.14.34,1.76.34.8,0,1.47-.2,1.99-.62.52-.42,1.01-1.14,1.48-2.21l1.14-2.52.34-.42,7.15-16.54h3.24l-8.83,20.05c-.52,1.28-1.12,2.3-1.77,3.02-.65.74-1.38,1.25-2.15,1.56s-1.65.47-2.57.47l-.02.02ZM33.2,93.03l-8.32-18.8h3.44l7.08,16.23-2.21,2.59.02-.02Z"/>
    <path class="st1" d="M56.65,92.45v-24.07h3.67l15.09,18.53h-1.83v-18.53h4.43v24.07h-3.67l-15.09-18.53h1.83v18.53h-4.43Z"/>
    <path class="st1" d="M89.62,92.69c-1.38,0-2.57-.24-3.62-.71-1.03-.47-1.83-1.12-2.39-1.95-.56-.83-.85-1.77-.85-2.84s.25-1.95.74-2.79,1.3-1.48,2.42-1.95c1.12-.49,2.61-.72,4.47-.72h5.34v2.86h-5.01c-1.47,0-2.46.24-2.95.71s-.76,1.05-.76,1.74c0,.78.31,1.39.92,1.86.62.45,1.48.69,2.59.69s1.99-.24,2.84-.72c.83-.49,1.43-1.19,1.81-2.14l.72,2.57c-.42,1.09-1.16,1.92-2.23,2.52s-2.41.89-4.04.89h-.02ZM95.39,92.45v-3.71l-.24-.8v-6.5c0-1.27-.38-2.24-1.14-2.93-.76-.71-1.9-1.05-3.44-1.05-1.03,0-2.04.16-3.04.49-1,.33-1.85.76-2.53,1.34l-1.68-3.13c.98-.76,2.15-1.32,3.53-1.7,1.36-.38,2.79-.56,4.25-.56,2.66,0,4.72.63,6.17,1.9,1.45,1.27,2.19,3.24,2.19,5.9v10.77h-4.05l-.02-.02Z"/>
    <path class="st1" d="M109.49,92.45l-7.87-18.37h4.47l6.77,16.2h-2.21l7.02-16.2h4.13l-7.87,18.37h-4.43Z"/>
    <path class="st1" d="M126.64,71.07c-.8,0-1.47-.25-1.97-.76s-.78-1.1-.78-1.83.25-1.34.78-1.85c.52-.49,1.18-.74,1.97-.74s1.47.24,1.97.71.78,1.07.78,1.77c0,.76-.25,1.39-.76,1.9-.51.52-1.18.78-1.99.78v.02ZM124.47,92.45v-18.37h4.31v18.37h-4.31Z"/>
    <path class="st1" d="M142.19,91.62c-1.74,0-3.31-.38-4.72-1.12s-2.52-1.77-3.33-3.11c-.81-1.32-1.21-2.9-1.21-4.67s.4-3.31,1.21-4.63c.81-1.32,1.92-2.35,3.33-3.09,1.41-.74,2.99-1.1,4.72-1.1,1.56,0,2.95.31,4.2.92,1.23.62,2.23,1.57,2.97,2.9.74,1.3,1.12,2.99,1.12,5.01s-.38,3.73-1.12,5.03c-.74,1.32-1.74,2.3-2.97,2.91-1.23.63-2.64.94-4.2.94v.02ZM142.73,99.37c-1.7,0-3.35-.22-4.98-.67-1.61-.45-2.93-1.1-3.96-1.94l1.92-3.24c.8.67,1.81,1.19,3.04,1.59,1.23.4,2.46.6,3.73.6,2.01,0,3.49-.47,4.43-1.39.94-.92,1.41-2.32,1.41-4.18v-3.28l.34-4.16-.14-4.16v-4.47h4.09v15.58c0,3.33-.85,5.77-2.55,7.35-1.7,1.57-4.14,2.35-7.36,2.35l.04.02ZM142.84,87.98c1.09,0,2.04-.22,2.9-.67s1.5-1.07,1.97-1.86.71-1.7.71-2.73-.24-1.94-.71-2.73-1.12-1.39-1.97-1.83-1.81-.63-2.9-.63-2.04.22-2.91.63-1.52,1.03-1.99,1.83c-.47.8-.71,1.7-.71,2.73s.24,1.94.71,2.73,1.14,1.41,1.99,1.86,1.83.67,2.91.67Z"/>
    <path class="st1" d="M163.81,92.69c-1.38,0-2.57-.24-3.62-.71-1.03-.47-1.83-1.12-2.39-1.95-.56-.83-.85-1.77-.85-2.84s.25-1.95.74-2.79,1.3-1.48,2.42-1.95c1.12-.49,2.61-.72,4.47-.72h5.34v2.86h-5.01c-1.47,0-2.46.24-2.95.71s-.76,1.05-.76,1.74c0,.78.31,1.39.92,1.86.62.45,1.48.69,2.59.69s1.99-.24,2.84-.72c.83-.49,1.43-1.19,1.81-2.14l.72,2.57c-.42,1.09-1.16,1.92-2.23,2.52s-2.41.89-4.04.89h-.02ZM169.58,92.45v-3.71l-.24-.8v-6.5c0-1.27-.38-2.24-1.14-2.93-.76-.71-1.9-1.05-3.44-1.05-1.03,0-2.04.16-3.04.49-1,.33-1.85.76-2.53,1.34l-1.68-3.13c.98-.76,2.15-1.32,3.53-1.7,1.36-.38,2.79-.56,4.25-.56,2.66,0,4.72.63,6.17,1.9,1.45,1.27,2.19,3.24,2.19,5.9v10.77h-4.05l-.02-.02Z"/>
    <path class="st1" d="M176.71,77.53v-3.44h12.23v3.44h-12.23ZM186.05,92.69c-2.01,0-3.58-.52-4.67-1.56-1.1-1.05-1.65-2.59-1.65-4.63v-16.47h4.31v16.36c0,.87.22,1.56.67,2.03.45.49,1.07.72,1.88.72.96,0,1.77-.25,2.41-.76l1.21,3.06c-.51.42-1.12.72-1.86.92s-1.48.31-2.26.31l-.04.02Z"/>
    <path class="st1" d="M201.36,92.69c-1.88,0-3.55-.4-5.01-1.21s-2.62-1.94-3.47-3.35c-.85-1.43-1.27-3.04-1.27-4.85s.42-3.46,1.27-4.87,2.01-2.52,3.47-3.31,3.15-1.19,5.01-1.19,3.6.4,5.07,1.19c1.48.8,2.64,1.9,3.47,3.29.83,1.39,1.25,3.02,1.25,4.89s-.42,3.42-1.25,4.85-1.99,2.53-3.47,3.35c-1.48.81-3.17,1.21-5.07,1.21ZM201.36,89.02c1.05,0,1.99-.24,2.82-.69s1.47-1.12,1.94-1.99.71-1.88.71-3.06-.24-2.23-.71-3.08-1.12-1.52-1.94-1.97c-.83-.45-1.76-.69-2.79-.69s-1.99.24-2.8.69-1.47,1.12-1.94,1.97c-.49.87-.72,1.88-.72,3.08s.24,2.19.72,3.06c.49.87,1.12,1.54,1.94,1.99.81.45,1.74.69,2.77.69Z"/>
    <path class="st1" d="M215.28,92.45v-18.37h4.09v5.05l-.49-1.48c.54-1.23,1.41-2.17,2.59-2.82,1.18-.63,2.66-.96,4.42-.96v4.09c-.18-.05-.36-.07-.52-.09h-.49c-1.63,0-2.93.47-3.89,1.43s-1.45,2.37-1.45,4.25v8.9h-4.31.05Z"/>
    <path class="st1" d="M235.4,92.69c-1.54,0-3-.2-4.42-.6s-2.53-.89-3.35-1.47l1.65-3.28c.83.52,1.81.96,2.95,1.3s2.3.51,3.44.51c1.36,0,2.33-.18,2.93-.54.6-.36.9-.87.9-1.48,0-.51-.2-.89-.62-1.16s-.96-.47-1.61-.6c-.67-.14-1.41-.27-2.23-.38s-1.63-.27-2.44-.47c-.81-.2-1.56-.49-2.21-.87-.67-.38-1.21-.89-1.61-1.54-.42-.63-.62-1.48-.62-2.55,0-1.18.33-2.19,1-3.04s1.59-1.52,2.8-1.99,2.62-.71,4.29-.71c1.23,0,2.48.14,3.75.42,1.27.27,2.3.67,3.13,1.18l-1.65,3.28c-.87-.52-1.76-.89-2.62-1.09-.89-.2-1.76-.29-2.62-.29-1.3,0-2.28.2-2.91.58-.63.4-.94.89-.94,1.48,0,.54.2.96.62,1.23s.96.49,1.61.65c.67.16,1.41.29,2.23.4s1.63.25,2.42.47c.8.2,1.54.49,2.23.85.67.36,1.21.85,1.63,1.5.42.63.62,1.48.62,2.52,0,1.14-.34,2.14-1.01,2.99s-1.63,1.5-2.88,1.97c-1.23.47-2.71.71-4.43.71l-.02.02Z"/>
  </g>
</svg>
