<?xml version="1.0" encoding="UTF-8"?>
<svg id="Layer_1" data-name="Layer 1" xmlns="http://www.w3.org/2000/svg" viewBox="0 0 196.34 65.51">
  <defs>
    <style>
      .cls-1 {
        fill: #3a2968;
      }

      .cls-2 {
        fill: #5b5596;
      }

      .cls-3 {
        fill: #74c9b7;
      }
    </style>
  </defs>
  <path class="cls-2" d="M11.87,47.51V3.31h20.65c6.78,0,11.93,1.49,15.47,4.48,3.54,2.99,5.3,7.05,5.3,12.19,0,3.41-.82,6.35-2.46,8.81-1.64,2.46-3.97,4.35-6.98,5.65-3.01,1.31-6.58,1.96-10.7,1.96h-13.01l6.63-6.13v17.24h-14.9ZM26.77,31.91l-6.63-6.76h12.06c2.06,0,3.59-.46,4.58-1.39.99-.93,1.48-2.19,1.48-3.79s-.5-2.86-1.48-3.79c-.99-.93-2.52-1.39-4.58-1.39h-12.06l6.63-6.76v23.87ZM38.33,47.51l-10.86-16.1h15.79l10.99,16.1h-15.91Z"/>
  <rect class="cls-3" x="58.47" y="12.96" width="14.27" height="34.54"/>
  <path class="cls-2" d="M90.45,47.51l-13.89-34.54h14.65l10.55,28.04h-7.39l11.24-28.04h13.51l-13.89,34.54h-14.78Z"/>
  <path class="cls-2" d="M137.84,48.14c-4.21,0-7.88-.78-11.02-2.34-3.14-1.56-5.57-3.69-7.29-6.41-1.73-2.71-2.59-5.78-2.59-9.19s.85-6.59,2.56-9.28c1.71-2.69,4.04-4.8,7.01-6.32,2.97-1.52,6.3-2.27,10.01-2.27,3.41,0,6.56.67,9.44,2.02,2.88,1.35,5.2,3.35,6.95,6,1.75,2.65,2.62,5.94,2.62,9.85,0,.51-.02,1.06-.06,1.67-.04.61-.08,1.17-.13,1.67h-26.58v-6.88h19.01l-5.37,1.83c0-1.35-.24-2.49-.73-3.44-.48-.95-1.15-1.68-1.99-2.21-.84-.53-1.85-.79-3.03-.79s-2.2.26-3.06.79c-.86.53-1.53,1.26-1.99,2.21-.46.95-.69,2.09-.69,3.44v2.15c0,1.47.29,2.74.88,3.79.59,1.05,1.43,1.84,2.53,2.37,1.09.53,2.42.79,3.98.79s2.91-.21,3.95-.63c1.03-.42,2.12-1.05,3.25-1.89l7.45,7.51c-1.68,1.81-3.76,3.19-6.22,4.14-2.46.95-5.42,1.42-8.87,1.42Z"/>
  <path class="cls-2" d="M156.85,23.39v-10.42h26.08v10.42h-26.08ZM176.67,48.14c-4.76,0-8.46-1.15-11.11-3.44-2.65-2.29-3.98-5.82-3.98-10.58V5.2h14.27v28.79c0,1.05.28,1.87.85,2.46.57.59,1.27.88,2.12.88,1.22,0,2.29-.32,3.22-.95l3.41,9.91c-1.09.63-2.41,1.1-3.95,1.39-1.54.29-3.15.44-4.83.44Z"/>
  <g id="qBICOe">
    <path class="cls-3" d="M78,11.03h-25.09c.41-1.5,1.09-2.84,1.97-4h21.43c1,1.24,1.67,2.63,1.68,4Z"/>
  </g>
  <g>
    <path class="cls-1" d="M90.87,61.75v-10.02h1.3v4.77l-.13,1.66.08,1.66v1.93h-1.24ZM94.66,61.83c-.61,0-1.16-.14-1.65-.41s-.88-.68-1.16-1.22c-.28-.54-.42-1.21-.42-2.02s.15-1.48.44-2.02c.29-.54.68-.94,1.17-1.21.49-.27,1.03-.41,1.63-.41.7,0,1.32.15,1.86.46.54.31.97.73,1.28,1.28.31.54.47,1.18.47,1.91s-.16,1.37-.47,1.92c-.32.55-.74.98-1.28,1.28s-1.16.46-1.86.46ZM94.55,60.69c.46,0,.87-.1,1.24-.31s.65-.5.86-.88c.21-.38.32-.83.32-1.33s-.11-.96-.32-1.33c-.21-.37-.5-.66-.86-.87s-.78-.31-1.24-.31-.86.1-1.22.31-.65.5-.86.87-.32.82-.32,1.33.11.95.32,1.33c.21.38.5.68.86.88s.77.31,1.22.31Z"/>
    <path class="cls-1" d="M100.18,64.45c-.34,0-.67-.06-1-.17-.32-.11-.6-.28-.84-.49l.55-.97c.18.17.38.3.59.39s.45.13.69.13c.31,0,.58-.08.78-.24s.4-.45.58-.86l.45-.99.14-.16,2.81-6.49h1.27l-3.47,7.87c-.21.5-.44.9-.7,1.19-.26.29-.54.49-.84.61-.31.12-.64.18-1.01.18ZM101.89,61.98l-3.27-7.38h1.35l2.78,6.37-.86,1.01Z"/>
    <path class="cls-1" d="M111.09,61.75v-9.45h1.45l5.93,7.28h-.71v-7.28h1.74v9.45h-1.44l-5.93-7.28h.72v7.28h-1.74Z"/>
    <path class="cls-1" d="M124.04,61.84c-.54,0-1.01-.09-1.42-.28-.41-.18-.72-.44-.94-.77s-.33-.7-.33-1.11.1-.77.29-1.09c.19-.32.51-.58.95-.77.44-.19,1.03-.28,1.75-.28h2.09v1.12h-1.97c-.58,0-.96.09-1.16.28-.2.18-.3.41-.3.68,0,.31.12.55.36.73s.58.27,1.01.27.79-.09,1.11-.28.56-.47.71-.84l.28,1.01c-.16.42-.45.75-.87.99-.42.23-.95.35-1.59.35ZM126.31,61.75v-1.46l-.09-.31v-2.55c0-.5-.15-.88-.45-1.15s-.75-.41-1.35-.41c-.4,0-.8.06-1.19.19s-.72.3-.99.53l-.66-1.23c.39-.3.85-.52,1.38-.67.54-.15,1.09-.22,1.67-.22,1.04,0,1.85.25,2.42.75s.86,1.27.86,2.31v4.23h-1.59Z"/>
    <path class="cls-1" d="M131.84,61.75l-3.09-7.21h1.75l2.66,6.36h-.86l2.75-6.36h1.62l-3.09,7.21h-1.74Z"/>
    <path class="cls-1" d="M138.58,53.35c-.31,0-.57-.1-.78-.3-.2-.2-.3-.44-.3-.72s.1-.53.3-.72c.2-.19.46-.29.78-.29s.57.09.78.28c.2.18.3.42.3.69,0,.3-.1.55-.3.75s-.46.3-.78.3ZM137.73,61.75v-7.21h1.69v7.21h-1.69Z"/>
    <path class="cls-1" d="M144.68,61.42c-.68,0-1.3-.15-1.86-.44s-.99-.7-1.31-1.22-.48-1.13-.48-1.84.16-1.3.48-1.82.76-.93,1.31-1.21,1.17-.43,1.86-.43c.61,0,1.16.12,1.65.36.49.24.88.62,1.17,1.13s.44,1.17.44,1.97-.15,1.46-.44,1.98-.68.9-1.17,1.15c-.49.25-1.04.37-1.65.37ZM144.89,64.46c-.67,0-1.32-.09-1.95-.26-.63-.18-1.15-.43-1.56-.76l.76-1.27c.31.26.71.47,1.19.63.48.16.97.24,1.46.24.79,0,1.37-.18,1.74-.55.37-.36.55-.91.55-1.64v-1.28l.14-1.63-.05-1.63v-1.75h1.61v6.12c0,1.3-.33,2.27-1,2.88-.67.62-1.63.92-2.89.92ZM144.94,59.99c.42,0,.8-.09,1.13-.26.33-.18.59-.42.78-.73.18-.31.28-.67.28-1.07s-.09-.76-.28-1.07c-.18-.31-.44-.55-.78-.72-.33-.17-.71-.25-1.13-.25s-.8.08-1.14.25c-.34.17-.6.41-.78.72-.18.31-.28.67-.28,1.07s.09.76.28,1.07c.18.31.45.55.78.73.34.18.72.26,1.14.26Z"/>
    <path class="cls-1" d="M153.17,61.84c-.54,0-1.01-.09-1.42-.28-.41-.18-.72-.44-.94-.77s-.33-.7-.33-1.11.1-.77.29-1.09c.19-.32.51-.58.95-.77.44-.19,1.03-.28,1.75-.28h2.09v1.12h-1.97c-.58,0-.96.09-1.16.28-.2.18-.3.41-.3.68,0,.31.12.55.36.73s.58.27,1.01.27.79-.09,1.11-.28.56-.47.71-.84l.28,1.01c-.16.42-.45.75-.87.99-.42.23-.95.35-1.59.35ZM155.44,61.75v-1.46l-.09-.31v-2.55c0-.5-.15-.88-.45-1.15s-.75-.41-1.35-.41c-.4,0-.8.06-1.19.19s-.72.3-.99.53l-.66-1.23c.39-.3.85-.52,1.38-.67.54-.15,1.09-.22,1.67-.22,1.04,0,1.85.25,2.42.75s.86,1.27.86,2.31v4.23h-1.59Z"/>
    <path class="cls-1" d="M158.23,55.89v-1.35h4.81v1.35h-4.81ZM161.9,61.84c-.79,0-1.4-.21-1.84-.61-.43-.41-.65-1.01-.65-1.82v-6.47h1.69v6.43c0,.34.09.61.26.8s.42.28.74.28c.38,0,.69-.1.94-.3l.47,1.2c-.2.16-.44.28-.73.36-.29.08-.59.12-.89.12Z"/>
    <path class="cls-1" d="M167.91,61.84c-.74,0-1.39-.16-1.97-.48-.58-.32-1.03-.76-1.36-1.32-.33-.56-.5-1.19-.5-1.9s.17-1.36.5-1.91c.33-.55.79-.99,1.36-1.3s1.23-.47,1.97-.47,1.41.16,1.99.47c.58.31,1.04.75,1.36,1.3.33.55.49,1.19.49,1.92s-.16,1.35-.49,1.9c-.33.56-.78,1-1.36,1.32-.58.32-1.24.48-1.99.48ZM167.91,60.4c.41,0,.78-.09,1.11-.27.32-.18.58-.44.76-.78.18-.34.28-.74.28-1.2s-.09-.87-.28-1.21c-.18-.34-.44-.6-.76-.78s-.69-.27-1.09-.27-.78.09-1.1.27c-.32.18-.57.44-.76.78-.19.34-.28.74-.28,1.21s.09.86.28,1.2c.19.34.44.6.76.78.32.18.68.27,1.09.27Z"/>
    <path class="cls-1" d="M173.38,61.75v-7.21h1.61v1.98l-.19-.58c.22-.49.56-.85,1.02-1.11.46-.25,1.04-.38,1.73-.38v1.61c-.07-.02-.14-.03-.2-.03-.06,0-.13,0-.19,0-.64,0-1.15.19-1.53.56s-.57.93-.57,1.67v3.5h-1.69Z"/>
    <path class="cls-1" d="M181.28,61.84c-.6,0-1.18-.08-1.74-.24-.55-.16-.99-.35-1.32-.57l.65-1.28c.32.21.71.38,1.16.51.45.13.9.2,1.35.2.53,0,.92-.07,1.15-.22s.36-.34.36-.58c0-.2-.08-.35-.24-.45-.16-.1-.37-.18-.63-.24-.26-.05-.55-.1-.87-.15s-.64-.11-.96-.18c-.32-.08-.61-.19-.87-.34-.26-.15-.47-.35-.63-.6s-.24-.58-.24-1c0-.46.13-.86.39-1.19.26-.34.63-.6,1.1-.78s1.03-.28,1.68-.28c.49,0,.98.05,1.47.16s.9.26,1.23.46l-.65,1.28c-.34-.21-.69-.35-1.03-.42-.35-.08-.69-.11-1.03-.11-.51,0-.89.08-1.14.23-.25.15-.37.35-.37.58,0,.22.08.38.24.49s.37.19.63.26c.26.06.55.11.87.16s.64.1.95.18c.31.08.61.19.87.33.27.14.48.34.64.59.16.25.24.58.24.99,0,.45-.13.84-.4,1.17s-.64.59-1.13.78c-.49.18-1.07.28-1.74.28Z"/>
  </g>
</svg>
